<?xml version="1.0" encoding="utf-8" standalone="no"?>
<!DOCTYPE svg PUBLIC "-//W3C//DTD SVG 1.1//EN"
  "http://www.w3.org/Graphics/SVG/1.1/DTD/svg11.dtd">
<svg xmlns:xlink="http://www.w3.org/1999/xlink" width="576pt" height="576pt" viewBox="0 0 576 576" xmlns="http://www.w3.org/2000/svg" version="1.1">
 <metadata>
  <rdf:RDF xmlns:dc="http://purl.org/dc/elements/1.1/" xmlns:cc="http://creativecommons.org/ns#" xmlns:rdf="http://www.w3.org/1999/02/22-rdf-syntax-ns#">
   <cc:Work>
    <dc:type rdf:resource="http://purl.org/dc/dcmitype/StillImage"/>
    <dc:date>2024-08-11T14:00:02.311433</dc:date>
    <dc:format>image/svg+xml</dc:format>
    <dc:creator>
     <cc:Agent>
      <dc:title>Matplotlib v3.7.1, https://matplotlib.org/</dc:title>
     </cc:Agent>
    </dc:creator>
   </cc:Work>
  </rdf:RDF>
 </metadata>
 <defs>
  <style type="text/css">*{stroke-linejoin: round; stroke-linecap: butt}</style>
 </defs>
 <g id="figure_1">
  <g id="patch_1">
   <path d="M 0 576 
L 576 576 
L 576 0 
L 0 0 
z
" style="fill: #ffffff"/>
  </g>
  <g id="axes_1">
   <g id="patch_2">
    <path d="M 36.126318 548.521875 
L 559.73389 548.521875 
L 559.73389 10.8 
L 36.126318 10.8 
z
" style="fill: #ffffff"/>
   </g>
   <g id="matplotlib.axis_1">
    <g id="xtick_1">
     <g id="line2d_1">
      <defs>
       <path id="m6020f0626e" d="M 0 0 
L 0 3.5 
" style="stroke: #000000; stroke-width: 0.8"/>
      </defs>
      <g>
       <use xlink:href="#m6020f0626e" x="56.767188" y="548.521875" style="stroke: #000000; stroke-width: 0.8"/>
      </g>
     </g>
     <g id="text_1">
      <!-- 0 -->
      <g transform="translate(53.585938 563.120312) scale(0.1 -0.1)">
       <defs>
        <path id="DejaVuSans-30" d="M 2034 4250 
Q 1547 4250 1301 3770 
Q 1056 3291 1056 2328 
Q 1056 1369 1301 889 
Q 1547 409 2034 409 
Q 2525 409 2770 889 
Q 3016 1369 3016 2328 
Q 3016 3291 2770 3770 
Q 2525 4250 2034 4250 
z
M 2034 4750 
Q 2819 4750 3233 4129 
Q 3647 3509 3647 2328 
Q 3647 1150 3233 529 
Q 2819 -91 2034 -91 
Q 1250 -91 836 529 
Q 422 1150 422 2328 
Q 422 3509 836 4129 
Q 1250 4750 2034 4750 
z
" transform="scale(0.015625)"/>
       </defs>
       <use xlink:href="#DejaVuSans-30"/>
      </g>
     </g>
    </g>
    <g id="xtick_2">
     <g id="line2d_2">
      <g>
       <use xlink:href="#m6020f0626e" x="162.082982" y="548.521875" style="stroke: #000000; stroke-width: 0.8"/>
      </g>
     </g>
     <g id="text_2">
      <!-- 50 -->
      <g transform="translate(155.720482 563.120312) scale(0.1 -0.1)">
       <defs>
        <path id="DejaVuSans-35" d="M 691 4666 
L 3169 4666 
L 3169 4134 
L 1269 4134 
L 1269 2991 
Q 1406 3038 1543 3061 
Q 1681 3084 1819 3084 
Q 2600 3084 3056 2656 
Q 3513 2228 3513 1497 
Q 3513 744 3044 326 
Q 2575 -91 1722 -91 
Q 1428 -91 1123 -41 
Q 819 9 494 109 
L 494 744 
Q 775 591 1075 516 
Q 1375 441 1709 441 
Q 2250 441 2565 725 
Q 2881 1009 2881 1497 
Q 2881 1984 2565 2268 
Q 2250 2553 1709 2553 
Q 1456 2553 1204 2497 
Q 953 2441 691 2322 
L 691 4666 
z
" transform="scale(0.015625)"/>
       </defs>
       <use xlink:href="#DejaVuSans-35"/>
       <use xlink:href="#DejaVuSans-30" x="63.623047"/>
      </g>
     </g>
    </g>
    <g id="xtick_3">
     <g id="line2d_3">
      <g>
       <use xlink:href="#m6020f0626e" x="267.398776" y="548.521875" style="stroke: #000000; stroke-width: 0.8"/>
      </g>
     </g>
     <g id="text_3">
      <!-- 100 -->
      <g transform="translate(257.855026 563.120312) scale(0.1 -0.1)">
       <defs>
        <path id="DejaVuSans-31" d="M 794 531 
L 1825 531 
L 1825 4091 
L 703 3866 
L 703 4441 
L 1819 4666 
L 2450 4666 
L 2450 531 
L 3481 531 
L 3481 0 
L 794 0 
L 794 531 
z
" transform="scale(0.015625)"/>
       </defs>
       <use xlink:href="#DejaVuSans-31"/>
       <use xlink:href="#DejaVuSans-30" x="63.623047"/>
       <use xlink:href="#DejaVuSans-30" x="127.246094"/>
      </g>
     </g>
    </g>
    <g id="xtick_4">
     <g id="line2d_4">
      <g>
       <use xlink:href="#m6020f0626e" x="372.71457" y="548.521875" style="stroke: #000000; stroke-width: 0.8"/>
      </g>
     </g>
     <g id="text_4">
      <!-- 150 -->
      <g transform="translate(363.17082 563.120312) scale(0.1 -0.1)">
       <use xlink:href="#DejaVuSans-31"/>
       <use xlink:href="#DejaVuSans-35" x="63.623047"/>
       <use xlink:href="#DejaVuSans-30" x="127.246094"/>
      </g>
     </g>
    </g>
    <g id="xtick_5">
     <g id="line2d_5">
      <g>
       <use xlink:href="#m6020f0626e" x="478.030364" y="548.521875" style="stroke: #000000; stroke-width: 0.8"/>
      </g>
     </g>
     <g id="text_5">
      <!-- 200 -->
      <g transform="translate(468.486614 563.120312) scale(0.1 -0.1)">
       <defs>
        <path id="DejaVuSans-32" d="M 1228 531 
L 3431 531 
L 3431 0 
L 469 0 
L 469 531 
Q 828 903 1448 1529 
Q 2069 2156 2228 2338 
Q 2531 2678 2651 2914 
Q 2772 3150 2772 3378 
Q 2772 3750 2511 3984 
Q 2250 4219 1831 4219 
Q 1534 4219 1204 4116 
Q 875 4013 500 3803 
L 500 4441 
Q 881 4594 1212 4672 
Q 1544 4750 1819 4750 
Q 2544 4750 2975 4387 
Q 3406 4025 3406 3419 
Q 3406 3131 3298 2873 
Q 3191 2616 2906 2266 
Q 2828 2175 2409 1742 
Q 1991 1309 1228 531 
z
" transform="scale(0.015625)"/>
       </defs>
       <use xlink:href="#DejaVuSans-32"/>
       <use xlink:href="#DejaVuSans-30" x="63.623047"/>
       <use xlink:href="#DejaVuSans-30" x="127.246094"/>
      </g>
     </g>
    </g>
   </g>
   <g id="matplotlib.axis_2">
    <g id="ytick_1">
     <g id="line2d_6">
      <defs>
       <path id="m392f0dbbae" d="M 0 0 
L -3.5 0 
" style="stroke: #000000; stroke-width: 0.8"/>
      </defs>
      <g>
       <use xlink:href="#m392f0dbbae" x="36.126318" y="527.239445" style="stroke: #000000; stroke-width: 0.8"/>
      </g>
     </g>
     <g id="text_6">
      <!-- 0 -->
      <g transform="translate(22.763818 531.038664) scale(0.1 -0.1)">
       <use xlink:href="#DejaVuSans-30"/>
      </g>
     </g>
    </g>
    <g id="ytick_2">
     <g id="line2d_7">
      <g>
       <use xlink:href="#m392f0dbbae" x="36.126318" y="421.923651" style="stroke: #000000; stroke-width: 0.8"/>
      </g>
     </g>
     <g id="text_7">
      <!-- 50 -->
      <g transform="translate(16.401318 425.72287) scale(0.1 -0.1)">
       <use xlink:href="#DejaVuSans-35"/>
       <use xlink:href="#DejaVuSans-30" x="63.623047"/>
      </g>
     </g>
    </g>
    <g id="ytick_3">
     <g id="line2d_8">
      <g>
       <use xlink:href="#m392f0dbbae" x="36.126318" y="316.607857" style="stroke: #000000; stroke-width: 0.8"/>
      </g>
     </g>
     <g id="text_8">
      <!-- 100 -->
      <g transform="translate(10.038818 320.407076) scale(0.1 -0.1)">
       <use xlink:href="#DejaVuSans-31"/>
       <use xlink:href="#DejaVuSans-30" x="63.623047"/>
       <use xlink:href="#DejaVuSans-30" x="127.246094"/>
      </g>
     </g>
    </g>
    <g id="ytick_4">
     <g id="line2d_9">
      <g>
       <use xlink:href="#m392f0dbbae" x="36.126318" y="211.292063" style="stroke: #000000; stroke-width: 0.8"/>
      </g>
     </g>
     <g id="text_9">
      <!-- 150 -->
      <g transform="translate(10.038818 215.091282) scale(0.1 -0.1)">
       <use xlink:href="#DejaVuSans-31"/>
       <use xlink:href="#DejaVuSans-35" x="63.623047"/>
       <use xlink:href="#DejaVuSans-30" x="127.246094"/>
      </g>
     </g>
    </g>
    <g id="ytick_5">
     <g id="line2d_10">
      <g>
       <use xlink:href="#m392f0dbbae" x="36.126318" y="105.976269" style="stroke: #000000; stroke-width: 0.8"/>
      </g>
     </g>
     <g id="text_10">
      <!-- 200 -->
      <g transform="translate(10.038818 109.775488) scale(0.1 -0.1)">
       <use xlink:href="#DejaVuSans-32"/>
       <use xlink:href="#DejaVuSans-30" x="63.623047"/>
       <use xlink:href="#DejaVuSans-30" x="127.246094"/>
      </g>
     </g>
    </g>
   </g>
   <g id="line2d_11">
    <path d="M 145.110292 381.945769 
L 143.67295 380.193939 
L 142.259923 378.423227 
L 140.871554 376.633746 
L 139.508199 374.825575 
L 138.170218 372.998844 
L 136.857973 371.153616 
L 135.571817 369.29002 
L 134.312112 367.408153 
L 133.079204 365.50811 
L 131.873471 363.589973 
L 130.695249 361.65387 
L 129.544908 359.69988 
L 128.422794 357.728102 
L 127.329284 355.738662 
L 126.264717 353.731626 
L 125.229461 351.707123 
L 124.223862 349.665215 
L 123.248293 347.606048 
L 122.303101 345.529687 
L 121.501992 343.696945 
L 120.724919 341.84516 
L 119.971955 339.974992 
L 119.243172 338.087034 
L 118.538643 336.18193 
L 117.858436 334.260321 
L 117.202619 332.32282 
L 116.571272 330.370052 
L 115.964456 328.402644 
L 115.382251 326.42124 
L 114.824721 324.426465 
L 114.291939 322.418931 
L 113.783977 320.399297 
L 113.300908 318.368156 
L 112.842802 316.326152 
L 112.409726 314.273927 
L 112.001755 312.212093 
L 111.618962 310.141275 
L 111.261414 308.062118 
L 110.929181 305.975246 
L 110.622342 303.881272 
L 110.340958 301.780838 
L 110.085105 299.67457 
L 109.854851 297.563112 
L 109.650273 295.447058 
L 109.471439 293.327066 
L 109.318421 291.203748 
L 109.191284 289.077747 
L 109.090108 286.949672 
L 109.014957 284.820168 
L 108.965907 282.689859 
L 108.943028 280.559358 
L 108.946391 278.429323 
L 108.97606 276.300365 
L 109.032119 274.173126 
L 109.114626 272.048201 
L 109.223665 269.926249 
L 109.359295 267.807897 
L 109.521597 265.693771 
L 109.710631 263.584482 
L 109.926483 261.480673 
L 110.169211 259.382987 
L 110.438888 257.292034 
L 110.735591 255.208409 
L 111.059387 253.132818 
L 111.41035 251.065842 
L 111.788548 249.008089 
L 112.194052 246.960236 
L 112.626931 244.922892 
L 113.087262 242.896668 
L 113.575113 240.88224 
L 114.090555 238.880154 
L 114.633662 236.891116 
L 115.204497 234.915738 
L 115.803142 232.95463 
L 116.42966 231.008435 
L 117.084123 229.077763 
L 117.766604 227.163258 
L 118.477176 225.265529 
L 119.215906 223.385221 
L 119.982867 221.522975 
L 120.778126 219.679402 
L 121.760095 217.4982 
L 122.772166 215.336893 
L 123.813986 213.195577 
L 124.885211 211.074412 
L 125.985478 208.973528 
L 127.114454 206.89302 
L 128.271769 204.833082 
L 129.457086 202.793778 
L 130.670043 200.7753 
L 131.910303 198.777746 
L 133.177496 196.801242 
L 134.471285 194.845952 
" clip-path="url(#pf644fbaf58)" style="fill: none; stroke: #0000ff; stroke-width: 2; stroke-linecap: square"/>
   </g>
   <g id="line2d_12">
    <path d="M 428.531941 385.063123 
L 424.71479 390.536231 
L 420.753556 395.894021 
L 416.63474 401.109432 
L 412.344748 406.155401 
L 407.870048 411.004883 
L 403.197045 415.630809 
L 399.964839 418.577204 
L 396.634478 421.404199 
L 393.201912 424.103784 
L 388.401989 427.542995 
L 383.73204 430.581479 
L 378.943012 433.416155 
L 374.041142 436.048713 
L 369.032664 438.480822 
L 363.923813 440.714187 
L 358.720856 442.750486 
L 353.43003 444.591399 
L 348.0576 446.238614 
L 342.60977 447.693809 
L 337.092776 448.95868 
L 331.512916 450.034906 
L 325.876409 450.924167 
L 320.189491 451.628158 
L 314.458413 452.148558 
L 308.68941 452.487047 
L 302.888749 452.645311 
L 297.062634 452.625047 
L 291.217347 452.427925 
L 285.359124 452.055634 
L 279.494183 451.509859 
L 273.628809 450.792289 
L 267.76922 449.904603 
L 261.921651 448.848488 
L 256.09237 447.625624 
L 248.359221 445.738671 
L 240.684471 443.562274 
L 233.082903 441.100419 
L 225.569334 438.3571 
L 220.000819 436.117307 
L 214.496359 433.723123 
L 209.062205 431.176234 
L 203.704624 428.478313 
L 198.429835 425.631061 
L 193.24409 422.636159 
L 188.153623 419.495286 
L 183.164694 416.21013 
L 178.283537 412.782369 
L 173.516405 409.213699 
L 168.869532 405.505799 
L 164.349162 401.660348 
L 159.961545 397.679043 
L 155.712924 393.563562 
L 151.609544 389.315593 
L 147.657646 384.936798 
L 145.110292 381.945769 
L 145.110292 381.945769 
" clip-path="url(#pf644fbaf58)" style="fill: none; stroke: #008000; stroke-width: 2; stroke-linecap: square"/>
   </g>
   <g id="line2d_13">
    <path d="M 134.471285 194.845952 
L 137.600057 190.355664 
L 140.868453 185.983651 
L 144.272141 181.731519 
L 147.806783 177.600972 
L 151.468048 173.59365 
L 155.251613 169.711191 
L 159.153131 165.955266 
L 163.16828 162.327515 
L 167.292728 158.829608 
L 171.522137 155.463186 
L 177.317141 151.182 
L 183.280775 147.141413 
L 189.402761 143.345346 
L 195.672849 139.797751 
L 202.080759 136.502519 
L 208.616217 133.463537 
L 215.268953 130.684792 
L 222.028714 128.170171 
L 228.885217 125.923565 
L 235.828191 123.948926 
L 242.847369 122.250176 
L 249.932482 120.831202 
L 257.073261 119.695959 
L 264.259438 118.848335 
L 271.480744 118.292252 
L 276.913596 118.068912 
L 282.356107 118.013407 
L 287.803936 118.127407 
L 293.252746 118.412551 
L 298.698198 118.870544 
L 304.135984 119.502991 
L 309.561765 120.311565 
L 314.971188 121.297905 
L 320.359929 122.46368 
L 325.723681 123.810532 
L 331.058073 125.340099 
L 336.358798 127.054084 
L 341.621535 128.954094 
L 346.841911 131.041801 
L 352.01562 133.318844 
L 357.138323 135.786893 
L 362.205682 138.447589 
L 367.213388 141.302602 
L 372.157105 144.353572 
L 377.03246 147.60217 
L 381.835179 151.050002 
L 386.560859 154.698773 
L 391.205257 158.550121 
L 395.763971 162.605685 
L 400.232693 166.867137 
L 404.607052 171.336116 
L 407.468782 174.431535 
L 407.468782 174.431535 
" clip-path="url(#pf644fbaf58)" style="fill: none; stroke: #ff0000; stroke-width: 2; stroke-linecap: square"/>
   </g>
   <g id="line2d_14">
    <path d="M 147.262945 379.732042 
L 149.526336 377.246476 
L 151.88638 375.052595 
L 154.335258 373.125587 
L 156.865121 371.440641 
L 159.468142 369.972927 
L 162.136487 368.697619 
L 164.862306 367.589919 
L 169.041689 366.188301 
L 173.306331 365.024165 
L 179.079456 363.696597 
L 189.245501 361.43368 
L 193.558401 360.270186 
L 197.806724 358.869484 
L 200.589985 357.76254 
L 203.324972 356.488115 
L 206.003827 355.021414 
L 208.618708 353.337592 
L 211.161804 351.411838 
L 213.625258 349.219339 
L 216.001243 346.735252 
L 218.281917 343.934796 
L 220.459455 340.793111 
L 222.52603 337.285402 
L 224.473784 333.386841 
L 226.294891 329.072615 
L 227.724278 325.037476 
L 228.702148 321.412569 
L 229.475689 317.551659 
L 230.055251 313.48528 
L 230.451101 309.243996 
L 230.673605 304.858323 
L 230.733032 300.358827 
L 230.539004 293.462953 
L 230.036096 286.482745 
L 229.259131 279.521306 
L 228.242918 272.681709 
L 227.022231 266.067027 
L 225.631927 259.780348 
L 224.106763 253.924776 
L 222.481597 248.603352 
L 220.843815 244.047949 
L 219.095055 239.906411 
L 217.240008 236.156528 
L 215.283367 232.776125 
L 213.229825 229.743025 
L 211.084106 227.034987 
L 208.85087 224.629835 
L 206.534841 222.505393 
L 204.140729 220.639451 
L 201.673194 219.009801 
L 199.136976 217.594266 
L 196.536751 216.370638 
L 193.877212 215.316741 
L 189.787001 214.005565 
L 185.58978 212.95141 
L 179.854452 211.8162 
L 163.553669 208.914166 
L 159.047448 207.829061 
L 154.545228 206.476649 
L 151.553805 205.389519 
L 148.575905 204.128063 
L 145.616237 202.670136 
L 142.679484 200.993498 
L 139.770355 199.076003 
L 136.893551 196.89538 
L 134.471287 194.845949 
L 134.471287 194.845949 
" clip-path="url(#pf644fbaf58)" style="fill: none; stroke: #00bfbf; stroke-width: 2; stroke-linecap: square"/>
   </g>
   <g id="line2d_15">
    <path d="M 407.468782 174.431535 
L 409.10666 176.447699 
L 410.714552 178.449785 
L 412.292553 180.438277 
L 413.840793 182.413687 
L 415.359432 184.376466 
L 416.848567 186.327129 
L 418.308326 188.266157 
L 419.738869 190.194065 
L 421.140262 192.111334 
L 422.512665 194.018447 
L 423.856207 195.915919 
L 425.170983 197.804198 
L 426.457187 199.683832 
L 427.71485 201.555302 
L 428.944199 203.419058 
L 430.145264 205.275648 
L 431.318239 207.12552 
L 432.463221 208.969221 
L 433.580337 210.80717 
L 434.669749 212.639911 
L 435.73152 214.467928 
L 436.765812 216.291703 
L 437.772753 218.111717 
L 438.752439 219.928518 
L 439.705064 221.742522 
L 440.630659 223.554276 
L 441.529417 225.364263 
L 442.401467 227.172964 
L 443.246905 228.980893 
L 444.06586 230.788502 
L 444.85846 232.596335 
L 445.624835 234.404843 
L 446.365111 236.214541 
L 447.079419 238.025909 
L 447.767886 239.839431 
L 448.43061 241.655621 
L 449.06775 243.47496 
L 449.679435 245.297964 
L 450.265762 247.125081 
L 450.826859 248.956858 
L 451.362887 250.793746 
L 451.87391 252.636226 
L 452.360122 254.484845 
L 452.821617 256.340052 
L 453.258526 258.202362 
L 453.670977 260.072242 
L 454.059065 261.95022 
L 454.422952 263.836764 
L 454.762767 265.732355 
L 455.078605 267.637524 
L 455.370595 269.552736 
L 455.638899 271.47849 
L 455.883643 273.415269 
L 456.104894 275.363585 
L 456.302811 277.323922 
L 456.477555 279.296761 
L 456.629191 281.282617 
L 456.757879 283.281955 
L 456.863747 285.295291 
L 456.946925 287.323121 
L 457.007509 289.365913 
L 457.045659 291.424179 
L 457.061472 293.498404 
L 457.055076 295.589084 
L 457.026632 297.696701 
L 456.976237 299.821755 
L 456.904019 301.964742 
L 456.806731 304.136318 
L 456.682993 306.293479 
L 456.532546 308.436788 
L 456.355167 310.566775 
L 456.150597 312.684018 
L 455.918547 314.789064 
L 455.658761 316.882444 
L 455.371045 318.964735 
L 455.055111 321.036469 
L 454.7107 323.098207 
L 454.337557 325.150512 
L 453.935455 327.193914 
L 453.504107 329.228976 
L 453.043286 331.256244 
L 452.552704 333.276264 
L 452.032167 335.289615 
L 451.481387 337.296812 
L 450.900106 339.298449 
L 450.288067 341.295039 
L 449.645013 343.287146 
L 448.970719 345.275316 
L 448.264929 347.260127 
L 447.527384 349.242094 
L 446.757828 351.221795 
L 445.955971 353.199777 
L 445.121621 355.176585 
L 444.254489 357.152767 
L 443.354349 359.128884 
L 442.420911 361.105484 
L 441.453953 363.083112 
L 440.453215 365.062331 
L 439.418441 367.043703 
L 438.349341 369.027743 
L 437.245724 371.015029 
L 436.107331 373.006107 
L 434.933874 375.001541 
L 433.725095 377.00186 
L 432.480769 379.007626 
L 431.20064 381.019386 
L 429.884449 383.037703 
L 428.531941 385.063123 
" clip-path="url(#pf644fbaf58)" style="fill: none; stroke: #bf00bf; stroke-width: 2; stroke-linecap: square"/>
   </g>
   <g id="line2d_16">
    <path d="M 428.531941 385.063123 
L 425.875391 382.030313 
L 423.145145 379.329314 
L 420.344191 376.940553 
L 417.475518 374.844473 
L 414.542116 373.021502 
L 411.546941 371.452082 
L 408.49295 370.11664 
L 405.383197 368.995603 
L 402.220605 368.069397 
L 399.008165 367.318482 
L 395.748865 366.723269 
L 390.778537 366.079621 
L 385.719535 365.676234 
L 378.853599 365.398031 
L 357.655517 364.856684 
L 352.268336 364.44155 
L 346.866241 363.782426 
L 343.261502 363.174839 
L 339.657566 362.409895 
L 336.057423 361.468021 
L 332.464062 360.32966 
L 328.880439 358.97524 
L 325.309543 357.385186 
L 321.754363 355.539942 
L 318.217857 353.419934 
L 314.700539 351.048063 
L 311.359443 348.565727 
L 308.193959 345.978407 
L 305.203508 343.291597 
L 302.387464 340.510763 
L 299.745233 337.641415 
L 297.276219 334.689034 
L 294.979812 331.6591 
L 292.855418 328.557092 
L 290.902409 325.388507 
L 289.120207 322.158824 
L 287.508202 318.873539 
L 286.065798 315.538115 
L 284.79237 312.15805 
L 283.687322 308.738838 
L 282.750077 305.285959 
L 281.97999 301.804895 
L 281.376501 298.301123 
L 280.938965 294.78014 
L 280.666805 291.247443 
L 280.559426 287.708494 
L 280.616201 284.168774 
L 280.836535 280.633794 
L 281.219835 277.109035 
L 281.765489 273.59996 
L 282.472887 270.112082 
L 283.34145 266.650879 
L 284.370551 263.221816 
L 285.559596 259.830389 
L 286.907974 256.48211 
L 288.415091 253.18241 
L 290.080336 249.936834 
L 291.903131 246.750845 
L 293.882832 243.629906 
L 296.018877 240.579515 
L 298.310623 237.605199 
L 300.757493 234.712357 
L 303.358891 231.90655 
L 306.11419 229.193241 
L 309.036472 226.577895 
L 312.098466 224.151402 
L 315.269574 221.928451 
L 318.540284 219.891364 
L 321.901098 218.022369 
L 325.34247 216.30382 
L 330.634791 213.969279 
L 336.054884 211.873601 
L 343.424965 209.347636 
L 354.632413 205.845808 
L 363.948142 202.886534 
L 369.460541 200.969071 
L 374.875974 198.872172 
L 380.162269 196.536089 
L 383.598884 194.816287 
L 386.954347 192.945909 
L 390.219111 190.90728 
L 393.383663 188.682625 
L 396.438521 186.2543 
L 399.374141 183.604564 
L 402.181041 180.71574 
L 404.849675 177.570086 
L 406.129162 175.89544 
L 407.468782 174.429429 
L 407.468782 174.429429 
" clip-path="url(#pf644fbaf58)" style="fill: none; stroke: #bfbf00; stroke-width: 2; stroke-linecap: square"/>
   </g>
   <g id="line2d_17">
    <path d="M 84.665342 47.515462 
L 80.158938 104.522328 
L 76.525791 153.16657 
L 73.414597 197.633118 
L 70.667029 240.017165 
L 68.279201 280.303814 
L 66.240513 318.481449 
L 64.534707 354.541229 
L 63.14088 388.476727 
L 61.967879 422.403708 
L 61.082336 454.197761 
L 60.416904 485.975202 
L 59.984175 517.731604 
L 59.926662 524.079972 
L 59.926662 524.079972 
" clip-path="url(#pf644fbaf58)" style="fill: none; stroke: #000000; stroke-width: 2; stroke-linecap: square"/>
   </g>
   <g id="line2d_18">
    <path d="M 529.944739 72.949252 
L 513.156627 69.516139 
L 496.326991 66.31588 
L 479.459462 63.330315 
L 460.442807 60.205456 
L 441.388034 57.303357 
L 420.177707 54.308504 
L 396.807937 51.252392 
L 371.278627 48.14913 
L 341.464275 44.753075 
L 296.7229 39.90745 
L 274.989963 37.668236 
L 261.932113 36.537685 
L 251.039699 35.816692 
L 242.318428 35.431046 
L 233.590455 35.250935 
L 224.786456 35.309236 
L 215.917775 35.606658 
L 204.842728 36.250837 
L 191.566648 37.310101 
L 169.56356 39.379232 
L 84.665342 47.515462 
L 84.665342 47.515462 
" clip-path="url(#pf644fbaf58)" style="fill: none; stroke: #0000ff; stroke-width: 2; stroke-linecap: square"/>
   </g>
   <g id="line2d_19">
    <path d="M 513.368011 522.801438 
L 516.234787 508.325439 
L 518.870028 493.819906 
L 521.28164 479.286245 
L 523.477337 464.725862 
L 525.464961 450.140164 
L 527.252321 435.530546 
L 529.059736 418.806369 
L 530.627421 402.054889 
L 531.966945 385.278203 
L 533.089974 368.478425 
L 534.008145 351.657627 
L 534.810709 332.711744 
L 535.385305 313.744906 
L 535.748517 294.760117 
L 535.924322 273.648475 
L 535.882315 252.522451 
L 535.61173 229.27208 
L 535.082901 203.900256 
L 534.279245 176.412924 
L 533.11739 144.706725 
L 531.399934 104.581529 
L 529.944739 72.949252 
L 529.944739 72.949252 
" clip-path="url(#pf644fbaf58)" style="fill: none; stroke: #008000; stroke-width: 2; stroke-linecap: square"/>
   </g>
   <g id="line2d_20">
    <path d="M 60.057254 523.287997 
L 513.370132 522.801438 
L 513.370132 522.801438 
" clip-path="url(#pf644fbaf58)" style="fill: none; stroke: #ff0000; stroke-width: 2; stroke-linecap: square"/>
   </g>
   <g id="patch_3">
    <path d="M 36.126318 548.521875 
L 36.126318 10.8 
" style="fill: none; stroke: #000000; stroke-width: 0.8; stroke-linejoin: miter; stroke-linecap: square"/>
   </g>
   <g id="patch_4">
    <path d="M 559.73389 548.521875 
L 559.73389 10.8 
" style="fill: none; stroke: #000000; stroke-width: 0.8; stroke-linejoin: miter; stroke-linecap: square"/>
   </g>
   <g id="patch_5">
    <path d="M 36.126318 548.521875 
L 559.73389 548.521875 
" style="fill: none; stroke: #000000; stroke-width: 0.8; stroke-linejoin: miter; stroke-linecap: square"/>
   </g>
   <g id="patch_6">
    <path d="M 36.126318 10.8 
L 559.73389 10.8 
" style="fill: none; stroke: #000000; stroke-width: 0.8; stroke-linejoin: miter; stroke-linecap: square"/>
   </g>
  </g>
 </g>
 <defs>
  <clipPath id="pf644fbaf58">
   <rect x="36.126318" y="10.8" width="523.607572" height="537.721875"/>
  </clipPath>
 </defs>
</svg>
